<svg width="48" height="48" viewBox="0 0 48 48" fill="none" xmlns="http://www.w3.org/2000/svg">
<path d="M24 3C12.3975 3 3 12.3975 3 24C3 33.2925 9.01125 41.1413 17.3587 43.9238C18.4087 44.1075 18.8025 43.4775 18.8025 42.9263C18.8025 42.4275 18.7763 40.7738 18.7763 39.015C13.5 39.9863 12.135 37.7287 11.715 36.5475C11.4787 35.9437 10.455 34.08 9.5625 33.5812C8.8275 33.1875 7.7775 32.2162 9.53625 32.19C11.19 32.1637 12.3713 33.7125 12.765 34.3425C14.655 37.5187 17.6738 36.6263 18.8813 36.075C19.065 34.71 19.6162 33.7912 20.22 33.2662C15.5475 32.7412 10.665 30.93 10.665 22.8975C10.665 20.6137 11.4788 18.7237 12.8175 17.2537C12.6075 16.7287 11.8725 14.5762 13.0275 11.6887C13.0275 11.6887 14.7863 11.1375 18.8025 13.8413C20.4825 13.3688 22.2675 13.1325 24.0525 13.1325C25.8375 13.1325 27.6225 13.3688 29.3025 13.8413C33.3188 11.1113 35.0775 11.6887 35.0775 11.6887C36.2325 14.5762 35.4975 16.7287 35.2875 17.2537C36.6263 18.7237 37.44 20.5875 37.44 22.8975C37.44 30.9562 32.5313 32.7412 27.8588 33.2662C28.62 33.9225 29.2763 35.1825 29.2763 37.1513C29.2763 39.96 29.25 42.2175 29.25 42.9263C29.25 43.4775 29.6438 44.1338 30.6938 43.9238C34.8626 42.5164 38.4852 39.8371 41.0516 36.263C43.6179 32.6889 44.9989 28.4 45 24C45 12.3975 35.6025 3 24 3Z" fill="black"/>
</svg>
